<svg width="12" height="24" viewBox="0 0 12 24" fill="none" xmlns="http://www.w3.org/2000/svg">
<path d="M2.41707 4.64801C2.41707 5.25282 2.41707 7.95233 2.41707 7.95233H0V11.9929H2.41707V23.9999H7.38225V11.9932H10.7141C10.7141 11.9932 11.0262 10.0558 11.1774 7.93743C10.7437 7.93743 7.40102 7.93743 7.40102 7.93743C7.40102 7.93743 7.40102 5.58678 7.40102 5.17476C7.40102 4.76184 7.94238 4.20642 8.47743 4.20642C9.01149 4.20642 10.1387 4.20642 11.1826 4.20642C11.1826 3.6563 11.1826 1.7555 11.1826 1.44333e-08C9.78895 1.44333e-08 8.20339 1.44333e-08 7.50448 1.44333e-08C2.29434 -0.000278981 2.41707 4.04427 2.41707 4.64801Z" fill="black"/>
</svg>
