<svg width="48" height="52" viewBox="0 0 48 52" fill="none" xmlns="http://www.w3.org/2000/svg">
<path d="M21.8088 -1.43051e-06V21H17.8188L7.34882 8.25V21H2.54882V-1.43051e-06H6.56882L17.0088 12.75V-1.43051e-06H21.8088ZM40.6073 16.5H30.8573L28.9973 21H24.0173L33.3773 -1.43051e-06H38.1773L47.5673 21H42.4673L40.6073 16.5ZM39.0773 12.81L35.7473 4.77L32.4173 12.81H39.0773ZM19.11 51L19.08 38.4L12.9 48.78H10.71L4.55999 38.67V51H-5.36442e-06V30H4.01999L11.88 43.05L19.62 30H23.61L23.67 51H19.11ZM37.9823 51.36C34.9823 51.36 32.6423 50.53 30.9623 48.87C29.3023 47.21 28.4723 44.84 28.4723 41.76V30H33.3323V41.58C33.3323 45.34 34.8923 47.22 38.0123 47.22C39.5323 47.22 40.6923 46.77 41.4923 45.87C42.2923 44.95 42.6923 43.52 42.6923 41.58V30H47.4923V41.76C47.4923 44.84 46.6523 47.21 44.9723 48.87C43.3123 50.53 40.9823 51.36 37.9823 51.36Z" fill="#0F0E08"/>
</svg>
